# xmcd
#
# Track frame offsets:
#	150
#	17455
#	36697
#	53850
#	70280
#	87342
#	102635
#	120225
#	137655
#	157132
#
# Disc length: 2328 seconds
#
# Revision: 0
# Processed by: cddbd v1.5.2PL0 Copyright (c) Steve Scherf et al.
# Submitted via: EasyCDDAExtractor 15.3.0.1
#
DISCID=8a09160a
DTITLE=Lourdes Robles - Desde El Principio
DYEAR=1993
DGENRE=Latin
TTITLE0=Loca
TTITLE1=Abrazame Fuerte
TTITLE2=Haz Una Hoguera
TTITLE3=Todo Me Habla De Ti
TTITLE4=Gracias A Tu Amor
TTITLE5=Dile
TTITLE6=Sola
TTITLE7=Corazon En Blanco
TTITLE8=Que Lastima
TTITLE9=Hoy Yo No Quiero Estar Sola
EXTD=
EXTT0=
EXTT1=
EXTT2=
EXTT3=
EXTT4=
EXTT5=
EXTT6=
EXTT7=
EXTT8=
EXTT9=
PLAYORDER=
